<?xml version="1.0" encoding="utf-8"?>
<?xml-stylesheet type="text/xsl" href="rss1.xsl"?>
<rss version="2.0" xmlns:atom="http://www.w3.org/2005/Atom" xmlns:content="http://purl.org/rss/1.0/modules/content/" xmlns:dc="http://purl.org/dc/elements/1.1/" xmlns:media="http://search.yahoo.com/mrss/">
<channel>
 <title>Getty</title>
 <link>http://www.gettyimg.com/</link>
 <atom:link href="http://www.gettyimg.com/" rel="self" type="application/rss+xml" />

 
                <item>
                <title><![CDATA[【Requests】[REQ AUD] - Canta y Cuenta: Toy Story - EP]]></title>
                <link><![CDATA[https://sharemania.us/threads/canta-y-cuenta-toy-story-ep.245187/]]></link>
                <description><![CDATA[<article>
<blockquote class="messageText SelectQuoteContainer ugc baseHtml">
From iTunes Music Mexico or Spotify México<br>
<br>
<a href="https://music.apple.com/mx/album/canta-y-cuenta-toy-story-ep/1443264995" target="_blank" class="externalLink" rel="nofollow">https://music.apple.com/mx/album/canta-y-cuenta-toy-story-ep/1443264995</a><br>
<br>
<span data-s9e-mediaembed="spotify" style="display:inline-block;width:100%;max-width:320px"><span style="display:block;overflow:hidden;position:relative;padding-bottom:125%;padding-bottom:calc(100% + 80px)"><iframe allow="encrypted-media" allowfullscreen="" loading="lazy" scrolling="no" src="https://open.spotify.com/embed/album/1XdGbS5wra2anoG0lOOVnS" style="border:0;height:100%;left:0;position:absolute;width:100%"></iframe></span></span>
<div class="messageTextEndMarker">&nbsp;</div>
</blockquote>
</article>]]></description>
                <author><![CDATA[Megafox7]]></author>
                </item>

                
                <item>
                <title><![CDATA[【Music Videos】Dead By Sunrise - Crawl Back In [1080p with vinyl remaster audio edit, 48 kHZ 24 bit]]]></title>
                <link><![CDATA[https://sharemania.us/threads/dead-by-sunrise-crawl-back-in-1080p-with-vinyl-remaster-audio-edit-48-khz-24-bit.245185/]]></link>
                <description><![CDATA[<article>
<blockquote class="messageText SelectQuoteContainer ugc baseHtml">
Music video of “Crawl Back In,” with the intro and outro sounds edited in from the Japanese DVD, while the main audio of the track comes from the 2024 Record Store Day reissue.<br>
<br>
<div class="bbCodeBlock bbCodeVfcHH HiddenContent">
<div class="attribution type">Hidden Content:</div>
<blockquote>You must reply before you can see the hidden data contained here.</blockquote>
</div>
<div class="messageTextEndMarker">&nbsp;</div>
</blockquote>
</article>]]></description>
                <author><![CDATA[megabit]]></author>
                </item>

                
                <item>
                <title><![CDATA[【Apple Music】WEB-RiP - Havana Brown - Better Not Said (1080p)]]></title>
                <link><![CDATA[https://sharemania.us/threads/havana-brown-better-not-said-1080p.245189/]]></link>
                <description><![CDATA[<article>
<blockquote class="messageText SelectQuoteContainer ugc baseHtml">
<img src="https://i.postimg.cc/RVLTy3qV/Havana-Brown-Better-Not-Said-mp4.jpg" class="bbCodeImage LbImage" alt="[​IMG]" data-url="https://i.postimg.cc/RVLTy3qV/Havana-Brown-Better-Not-Said-mp4.jpg" style=""><br>
<br>
<div class="bbCodeBlock bbCodeCode">
<div class="type">Code:</div>
<pre>General
Complete name                  : G:\Новая папка\Havana Brown - Better Not Said.mp4
Format                         : MPEG-4
Format profile                 : Base Media
Codec ID                       : isom (isom/iso2/avc1/mp41)
File size                      : 177 MiB
Duration                       : 3 min 41 s
Overall bit rate               : 6 718 kb/s
Frame rate                     : 25.000 FPS
Movie name                     : Better Not Said
Performer                      : Havana Brown
Genre                          : Pop
ContentType                    : Music Video
Recorded date                  : 2014-01-01 08:00:00 UTC
Writing application            : Lavf56.30.100
Copyright                      : ℗ 2014 Island Records Australia / Universal Music Australia

Video
ID                             : 1
Format                         : AVC
Format/Info                    : Advanced Video Codec
Format profile                 : High@L4
Format settings                : CABAC / 5 Ref Frames
Format settings, CABAC         : Yes
Format settings, Reference fra : 5 frames
Format settings, Slice count   : 8 slices per frame
Codec ID                       : avc1
Codec ID/Info                  : Advanced Video Coding
Duration                       : 3 min 41 s
Bit rate                       : 6 466 kb/s
Width                          : 1 920 pixels
Height                         : 716 pixels
Display aspect ratio           : 2.682
Frame rate mode                : Constant
Frame rate                     : 25.000 FPS
Color space                    : YUV
Chroma subsampling             : 4:2:0
Bit depth                      : 8 bits
Scan type                      : Progressive
Bits/(Pixel*Frame)             : 0.188
Stream size                    : 171 MiB (96%)
Color range                    : Limited
Color primaries                : BT.709
Transfer characteristics       : BT.709
Matrix coefficients            : BT.709
Codec configuration box        : avcC

Audio
ID                             : 2
Format                         : AAC LC
Format/Info                    : Advanced Audio Codec Low Complexity
Codec ID                       : mp4a-40-2
Duration                       : 3 min 41 s
Bit rate mode                  : Constant
Bit rate                       : 249 kb/s
Channel(s)                     : 2 channels
Channel layout                 : L R
Sampling rate                  : 48.0 kHz
Frame rate                     : 46.875 FPS (1024 SPF)
Compression mode               : Lossy
Stream size                    : 6.58 MiB (4%)
Default                        : Yes
Alternate group                : 1

</pre>
</div>
<div class="bbCodeBlock bbCodeVfcHH HiddenContent">
<div class="attribution type">Hidden Content:</div>
<blockquote>You must either reply or click 'Like' to see the hidden information contained here.</blockquote>
</div>
<div class="messageTextEndMarker">&nbsp;</div>
</blockquote>
</article>]]></description>
                <author><![CDATA[vitalya3]]></author>
                </item>

                
                <item>
                <title><![CDATA[【Apple Music】WEB-RiP - Thalia &amp; Grupo Firme - Te Va a Doler (1080p)]]></title>
                <link><![CDATA[https://sharemania.us/threads/thalia-grupo-firme-te-va-a-doler-1080p.245183/]]></link>
                <description><![CDATA[<article>
<blockquote class="messageText SelectQuoteContainer ugc baseHtml">
<img src="https://i.postimg.cc/ThvykPq8/Thalia-Grupo-Firme-Te-Va-a-Doler-mp4.jpg" class="bbCodeImage LbImage" alt="[​IMG]" data-url="https://i.postimg.cc/ThvykPq8/Thalia-Grupo-Firme-Te-Va-a-Doler-mp4.jpg" style=""><br>
<br>
<div class="bbCodeBlock bbCodeCode">
<div class="type">Code:</div>
<pre>General
Complete name                  : G:\Новая папка\Thalia &amp; Grupo Firme - Te Va a Doler.mp4
Format                         : MPEG-4
Format profile                 : Base Media
Codec ID                       : isom (isom/iso2/avc1/mp41)
File size                      : 149 MiB
Duration                       : 3 min 2 s
Overall bit rate               : 6 845 kb/s
Frame rate                     : 23.976 FPS
Movie name                     : Te Va a Doler (Official Video)
Performer                      : Thalia &amp; Grupo Firme
Genre                          : Regional Mexican
ContentType                    : Music Video
Recorded date                  : 2024-04-26 07:00:00 UTC
Writing application            : Lavf56.30.100
Copyright                      : ℗ (C) 2024 Sony Music Entertainment US Latin LLC

Video
ID                             : 1
Format                         : AVC
Format/Info                    : Advanced Video Codec
Format profile                 : High@L4
Format settings                : CABAC / 5 Ref Frames
Format settings, CABAC         : Yes
Format settings, Reference fra : 5 frames
Format settings, Slice count   : 8 slices per frame
Codec ID                       : avc1
Codec ID/Info                  : Advanced Video Coding
Duration                       : 3 min 2 s
Bit rate                       : 6 581 kb/s
Width                          : 1 920 pixels
Height                         : 804 pixels
Display aspect ratio           : 2.39:1
Frame rate mode                : Constant
Frame rate                     : 23.976 (24000/1001) FPS
Color space                    : YUV
Chroma subsampling             : 4:2:0
Bit depth                      : 8 bits
Scan type                      : Progressive
Bits/(Pixel*Frame)             : 0.178
Stream size                    : 143 MiB (96%)
Language                       : English
Color range                    : Limited
Color primaries                : BT.709
Transfer characteristics       : BT.709
Matrix coefficients            : BT.709
Codec configuration box        : avcC

Audio
ID                             : 2
Format                         : AAC LC
Format/Info                    : Advanced Audio Codec Low Complexity
Codec ID                       : mp4a-40-2
Duration                       : 3 min 2 s
Duration_LastFrame             : -18 ms
Bit rate mode                  : Constant
Bit rate                       : 265 kb/s
Channel(s)                     : 2 channels
Channel layout                 : L R
Sampling rate                  : 48.0 kHz
Frame rate                     : 46.875 FPS (1024 SPF)
Compression mode               : Lossy
Stream size                    : 5.67 MiB (4%)
Default                        : Yes
Alternate group                : 1

</pre>
</div>
<div class="bbCodeBlock bbCodeVfcHH HiddenContent">
<div class="attribution type">Hidden Content:</div>
<blockquote>You must either reply or click 'Like' to see the hidden information contained here.</blockquote>
</div>
<div class="messageTextEndMarker">&nbsp;</div>
</blockquote>
</article>]]></description>
                <author><![CDATA[vitalya3]]></author>
                </item>

                
                <item>
                <title><![CDATA[【Apple Music】WEB-RiP - Havana Brown -  Ba Bing (1080p)]]></title>
                <link><![CDATA[https://sharemania.us/threads/havana-brown-ba-bing-1080p.245188/]]></link>
                <description><![CDATA[<article>
<blockquote class="messageText SelectQuoteContainer ugc baseHtml">
<img src="https://i.postimg.cc/MT7Pd9Qd/Havana-Brown-Ba-Bing-mp4.jpg" class="bbCodeImage LbImage" alt="[​IMG]" data-url="https://i.postimg.cc/MT7Pd9Qd/Havana-Brown-Ba-Bing-mp4.jpg" style=""><br>
<br>
<div class="bbCodeBlock bbCodeCode">
<div class="type">Code:</div>
<pre>General
Complete name                  : G:\Новая папка\Havana Brown -  Ba Bing.mp4
Format                         : MPEG-4
Format profile                 : Base Media
Codec ID                       : isom (isom/iso2/avc1/mp41)
File size                      : 183 MiB
Duration                       : 3 min 42 s
Overall bit rate               : 6 884 kb/s
Frame rate                     : 25.000 FPS
Movie name                     : Ba*Bing
Album                          : Better Not Said EP
Album/Performer                : Havana Brown
Part/Position                  : 1
Part/Total                     : 1
Track name/Position            : 4
Track name/Total               : 4
Performer                      : Havana Brown
Genre                          : Pop
ContentType                    : Music Video
Recorded date                  : 2014-09-12 07:00:00 UTC
Writing application            : Lavf56.30.100
Copyright                      : ℗ 2014 Universal Music Australia Pty Ltd.

Video
ID                             : 1
Format                         : AVC
Format/Info                    : Advanced Video Codec
Format profile                 : High@L4
Format settings                : CABAC / 4 Ref Frames
Format settings, CABAC         : Yes
Format settings, Reference fra : 4 frames
Format settings, Slice count   : 8 slices per frame
Codec ID                       : avc1
Codec ID/Info                  : Advanced Video Coding
Duration                       : 3 min 42 s
Bit rate                       : 6 627 kb/s
Width                          : 1 920 pixels
Height                         : 1 080 pixels
Display aspect ratio           : 16:9
Frame rate mode                : Constant
Frame rate                     : 25.000 FPS
Color space                    : YUV
Chroma subsampling             : 4:2:0
Bit depth                      : 8 bits
Scan type                      : Progressive
Bits/(Pixel*Frame)             : 0.128
Stream size                    : 176 MiB (96%)
Color range                    : Limited
Color primaries                : BT.709
Transfer characteristics       : BT.709
Matrix coefficients            : BT.709
Codec configuration box        : avcC

Audio
ID                             : 2
Format                         : AAC LC
Format/Info                    : Advanced Audio Codec Low Complexity
Codec ID                       : mp4a-40-2
Duration                       : 3 min 42 s
Bit rate mode                  : Constant
Bit rate                       : 253 kb/s
Channel(s)                     : 2 channels
Channel layout                 : L R
Sampling rate                  : 48.0 kHz
Frame rate                     : 46.875 FPS (1024 SPF)
Compression mode               : Lossy
Stream size                    : 6.72 MiB (4%)
Default                        : Yes
Alternate group                : 1

</pre>
</div>
<div class="bbCodeBlock bbCodeVfcHH HiddenContent">
<div class="attribution type">Hidden Content:</div>
<blockquote>You must either reply or click 'Like' to see the hidden information contained here.</blockquote>
</div>
<div class="messageTextEndMarker">&nbsp;</div>
</blockquote>
</article>]]></description>
                <author><![CDATA[vitalya3]]></author>
                </item>

                
                <item>
                <title><![CDATA[【Requests】[REQ AUD] - Looking for Working For The Weekend by Loverboy]]></title>
                <link><![CDATA[https://sharemania.us/threads/looking-for-working-for-the-weekend-by-loverboy.245186/]]></link>
                <description><![CDATA[<article>
<blockquote class="messageText SelectQuoteContainer ugc baseHtml">
<a href="https://www.qobuz.com/se-en/album/get-lucky-loverboy/0074646208229" target="_blank" class="externalLink" rel="nofollow">https://www.qobuz.com/se-en/album/get-lucky-loverboy/0074646208229</a>
<div class="messageTextEndMarker">&nbsp;</div>
</blockquote>
</article>]]></description>
                <author><![CDATA[samiromic]]></author>
                </item>

                
                <item>
                <title><![CDATA[【Apple Music】WEB-RiP - Victoria Justice - Gold (1080p)]]></title>
                <link><![CDATA[https://sharemania.us/threads/victoria-justice-gold-1080p.245182/]]></link>
                <description><![CDATA[<article>
<blockquote class="messageText SelectQuoteContainer ugc baseHtml">
<img src="https://i.postimg.cc/N0g8xdps/Victoria-Justice-Gold-mp4.jpg" class="bbCodeImage LbImage" alt="[​IMG]" data-url="https://i.postimg.cc/N0g8xdps/Victoria-Justice-Gold-mp4.jpg" style=""><br>
<br>
<div class="bbCodeBlock bbCodeCode">
<div class="type">Code:</div>
<pre>General
Complete name                  : G:\Новая папка\Victoria Justice - Gold.mp4
Format                         : MPEG-4
Format profile                 : Base Media
Codec ID                       : isom (isom/iso2/avc1/mp41)
File size                      : 157 MiB
Duration                       : 3 min 14 s
Overall bit rate               : 6 764 kb/s
Frame rate                     : 23.976 FPS
Movie name                     : Gold
Performer                      : Victoria Justice
Genre                          : Pop
ContentType                    : Music Video
Recorded date                  : 2013-07-13 07:00:00 UTC
Writing application            : Lavf56.30.100
Copyright                      : ℗ (C) 2013 Columbia Records, a Division of Sony Music Entertainment

Video
ID                             : 1
Format                         : AVC
Format/Info                    : Advanced Video Codec
Format profile                 : High@L4
Format settings                : CABAC / 5 Ref Frames
Format settings, CABAC         : Yes
Format settings, Reference fra : 5 frames
Format settings, Slice count   : 8 slices per frame
Codec ID                       : avc1
Codec ID/Info                  : Advanced Video Coding
Duration                       : 3 min 14 s
Bit rate                       : 6 508 kb/s
Width                          : 1 920 pixels
Height                         : 790 pixels
Display aspect ratio           : 2.40:1
Frame rate mode                : Constant
Frame rate                     : 23.976 (23976/1000) FPS
Color space                    : YUV
Chroma subsampling             : 4:2:0
Bit depth                      : 8 bits
Scan type                      : Progressive
Bits/(Pixel*Frame)             : 0.179
Stream size                    : 151 MiB (96%)
Color range                    : Limited
Color primaries                : BT.709
Transfer characteristics       : BT.709
Matrix coefficients            : BT.709
Codec configuration box        : avcC

Audio
ID                             : 2
Format                         : AAC LC
Format/Info                    : Advanced Audio Codec Low Complexity
Codec ID                       : mp4a-40-2
Duration                       : 3 min 14 s
Duration_LastFrame             : -2 ms
Bit rate mode                  : Constant
Bit rate                       : 252 kb/s
Channel(s)                     : 2 channels
Channel layout                 : L R
Sampling rate                  : 48.0 kHz
Frame rate                     : 46.875 FPS (1024 SPF)
Compression mode               : Lossy
Stream size                    : 5.84 MiB (4%)
Default                        : Yes
Alternate group                : 1

</pre>
</div>
<div class="bbCodeBlock bbCodeVfcHH HiddenContent">
<div class="attribution type">Hidden Content:</div>
<blockquote>You must either reply or click 'Like' to see the hidden information contained here.</blockquote>
</div>
<div class="messageTextEndMarker">&nbsp;</div>
</blockquote>
</article>]]></description>
                <author><![CDATA[vitalya3]]></author>
                </item>

                
                <item>
                <title><![CDATA[【Instrumentals / Karaoke (lossless)】FLAC - Jay-Z/Timbaland - Jigga What]]></title>
                <link><![CDATA[https://sharemania.us/threads/jay-z-timbaland-jigga-what.245184/]]></link>
                <description><![CDATA[<article>
<blockquote class="messageText SelectQuoteContainer ugc baseHtml">
Jigga What, Jigga Who Instrumental<br>
<br>
from this promo cd : <a href="https://www.discogs.com/release/4099855-Jay-Z-Featuring-Big-Jaz-And-Amil-Jigga-What" target="_blank" class="externalLink" rel="nofollow">https://www.discogs.com/release/4099855-Jay-Z-Featuring-Big-Jaz-And-Amil-Jigga-What</a><br>
<br>
USE <a href="https://www.base64encode.org/" target="_blank" class="externalLink" rel="nofollow">https://www.base64encode.org/</a><br>
<br>
<br>
<div class="bbCodeBlock bbCodeVfcHH HiddenContent">
<div class="attribution type">Hidden Content:</div>
<blockquote>You must either reply or click 'Like' to see the hidden information contained here.</blockquote>
</div>
<div class="messageTextEndMarker">&nbsp;</div>
</blockquote>
</article>]]></description>
                <author><![CDATA[ScaryJBlige]]></author>
                </item>

                </channel></rss>